<svg width="65" height="65" viewBox="0 0 65 65" fill="none" xmlns="http://www.w3.org/2000/svg">
<mask id="mask0_42_23" style="mask-type:alpha" maskUnits="userSpaceOnUse" x="0" y="0" width="65" height="65">
<rect x="0.5" y="0.5" width="64" height="64" rx="9.5" fill="#D9D9D9" stroke="#A3A3A3"/>
</mask>
<g mask="url(#mask0_42_23)">
<rect x="-1.5" y="-0.5" width="68" height="67" fill="url(#paint0_radial_42_23)" stroke="#A3A3A3"/>
</g>
<path d="M26.625 37.0002C28.4889 37.0002 30 35.4892 30 33.6252C30 31.7613 28.4889 30.2502 26.625 30.2502C24.761 30.2502 23.25 31.7613 23.25 33.6252C23.25 35.4892 24.761 37.0002 26.625 37.0002Z" stroke="white" stroke-width="2.5" stroke-linecap="round" stroke-linejoin="round"/>
<path d="M36.9746 28.25C36.4617 26.7991 35.5149 25.5411 34.2627 24.6467C33.0105 23.7522 31.5134 23.2646 29.9746 23.25V33.625" stroke="white" stroke-width="2.5" stroke-linecap="round" stroke-linejoin="round"/>
<path d="M40.75 17H19.5C18.1193 17 17 18.1193 17 19.5V40.75C17 42.1307 18.1193 43.25 19.5 43.25H40.75C42.1307 43.25 43.25 42.1307 43.25 40.75V19.5C43.25 18.1193 42.1307 17 40.75 17Z" stroke="white" stroke-width="2.5" stroke-linecap="round" stroke-linejoin="round"/>
<path d="M49.5 24.5V47C49.5 47.663 49.2365 48.299 48.7677 48.7677C48.299 49.2365 47.663 49.5 47 49.5H24.5" stroke="white" stroke-width="2.5" stroke-linecap="round" stroke-linejoin="round"/>
<defs>
<radialGradient id="paint0_radial_42_23" cx="0" cy="0" r="1" gradientUnits="userSpaceOnUse" gradientTransform="translate(32.5 33) rotate(89.5421) scale(66.4084 66.3483)">
<stop stop-color="#181818"/>
<stop offset="1" stop-color="#2563EB"/>
</radialGradient>
</defs>
</svg>
