<svg width="65" height="65" viewBox="0 0 65 65" fill="none" xmlns="http://www.w3.org/2000/svg">
<mask id="mask0_8_60" style="mask-type:alpha" maskUnits="userSpaceOnUse" x="0" y="0" width="65" height="65">
<rect x="0.5" y="0.5" width="64" height="64" rx="9.5" fill="#D9D9D9" stroke="#A3A3A3"/>
</mask>
<g mask="url(#mask0_8_60)">
<rect x="-1.5" y="-0.5" width="68" height="67" fill="url(#paint0_radial_8_60)" stroke="#A3A3A3"/>
<path d="M21.2308 48.574C24.1196 48.574 26.4615 46.2322 26.4615 43.3433C26.4615 40.4546 24.1196 38.1125 21.2308 38.1125C18.3419 38.1125 16 40.4546 16 43.3433C16 46.2322 18.3419 48.574 21.2308 48.574Z" stroke="#A3A3A3" stroke-width="3" stroke-linecap="round" stroke-linejoin="round"/>
<path d="M44.7693 42.0355C47.6583 42.0355 50.0001 39.6936 50.0001 36.8047C50.0001 33.9159 47.6583 31.574 44.7693 31.574C41.8804 31.574 39.5386 33.9159 39.5386 36.8047C39.5386 39.6936 41.8804 42.0355 44.7693 42.0355Z" stroke="#A3A3A3" stroke-width="3" stroke-linecap="round" stroke-linejoin="round"/>
<path d="M49.9999 36.805V16.3004C49.9988 16.1003 49.9518 15.9031 49.8623 15.724C49.7731 15.545 49.6439 15.3888 49.4847 15.2675C49.3256 15.1462 49.1407 15.0631 48.9443 15.0245C48.7479 14.986 48.5455 14.9929 48.3522 15.045L27.4291 20.8511C27.1526 20.9256 26.9082 21.0887 26.7334 21.3155C26.5586 21.5423 26.463 21.8202 26.4614 22.1065V43.3435" stroke="#A3A3A3" stroke-width="3" stroke-linecap="round" stroke-linejoin="round"/>
<path d="M26.4614 28.9586L49.9999 22.4202" stroke="#A3A3A3" stroke-width="3" stroke-linecap="round" stroke-linejoin="round"/>
</g>
<defs>
<radialGradient id="paint0_radial_8_60" cx="0" cy="0" r="1" gradientUnits="userSpaceOnUse" gradientTransform="translate(32.5 33) rotate(89.5421) scale(66.4084 66.3483)">
<stop stop-color="#181818"/>
<stop offset="1" stop-color="#4F46E5"/>
</radialGradient>
</defs>
</svg>
