<svg width="41" height="41" viewBox="0 0 41 41" fill="none" xmlns="http://www.w3.org/2000/svg">
<path d="M20.4373 0C9.15032 0 0 9.15008 0 20.437C0 31.7245 9.15032 40.8738 20.4373 40.8738C31.7255 40.8738 40.8748 31.7245 40.8748 20.437C40.8748 9.15081 31.7255 0.000976185 20.437 0.000976185L20.4373 0ZM29.8097 29.4761C29.4436 30.0764 28.6578 30.2668 28.0574 29.8983C23.259 26.9673 17.2183 26.3035 10.1043 27.9288C9.41877 28.085 8.73544 27.6555 8.57925 26.9697C8.42233 26.2839 8.85014 25.6006 9.53738 25.4444C17.3225 23.6651 24.0004 24.4316 29.3875 27.7238C29.9878 28.0923 30.1782 28.8757 29.8097 29.4761ZM32.3112 23.9106C31.8499 24.661 30.8689 24.8977 30.1196 24.4365C24.6261 21.0591 16.2521 20.0812 9.75434 22.0536C8.91164 22.3081 8.0216 21.8332 7.76584 20.992C7.51203 20.1493 7.98719 19.261 8.82842 19.0047C16.2506 16.7526 25.4778 17.8435 31.7865 21.7202C32.5357 22.1815 32.7724 23.1623 32.3112 23.9106ZM32.5259 18.1159C25.9391 14.2036 15.0716 13.8438 8.78279 15.7525C7.77292 16.0588 6.70496 15.4887 6.39893 14.4789C6.09289 13.4685 6.6625 12.4013 7.6731 12.0943C14.8923 9.90272 26.8933 10.3261 34.4768 14.8281C35.3871 15.3672 35.6849 16.5403 35.1455 17.4475C34.6086 18.3558 33.4323 18.6552 32.5269 18.1159H32.5259Z" fill="white"/>
</svg>
